<?xml version="1.0" encoding="utf-8"?>
<!-- Generator: Adobe Illustrator 24.0.1, SVG Export Plug-In . SVG Version: 6.00 Build 0)  -->
<svg version="1.1" id="Layer_1" xmlns="http://www.w3.org/2000/svg" xmlns:xlink="http://www.w3.org/1999/xlink" x="0px" y="0px"
	 viewBox="0 0 64 64" style="enable-background:new 0 0 64 64;" xml:space="preserve">
<style type="text/css">
	.st0{fill:#06C167;}
	.st1{fill:#FFFFFF;}
	.st2{fill:none;stroke:#FFFFFF;stroke-width:2.5457;stroke-linecap:round;stroke-linejoin:round;stroke-miterlimit:133.3333;}
	.st3{fill:none;stroke:#FFFFFF;stroke-width:1.3274;stroke-opacity:0.18;}
</style>
<path class="st0" d="M12,0h40c6.6,0,12,5.4,12,12v40c0,6.6-5.4,12-12,12H12C5.4,64,0,58.6,0,52V12C0,5.4,5.4,0,12,0z"/>
<path id="Fork" class="st1" d="M19.6,12.8v7.7c0,0.5-0.4,0.9-0.9,0.9h-0.2c-0.5,0-0.9-0.4-0.9-0.9v-7.8c0-1.3-0.9-1.7-1.7-1.7
	s-1.7,0.4-1.7,1.7v7.8c0,0.5-0.4,0.9-0.9,0.9H13c-0.5,0-0.9-0.4-0.9-0.9v-7.7c0-2.3-3.3-2.2-3.3,0c0,2.7,0,7.4,0,7.4
	c0,4.1,1,5.2,2.6,6.4c1.3,1,2.4,1.6,2.4,4.2v16.4h3.9V30.8c0-2.6,1.1-3.1,2.4-4.2c1.6-1.3,2.6-2.3,2.6-6.4c0,0,0-4.7,0-7.4
	C22.8,10.6,19.6,10.5,19.6,12.8z"/>
<path id="Clock" class="st2" d="M47.6,22.8v6.4h3.8 M59.1,29.2c0,6.3-5.1,11.5-11.5,11.5c-6.3,0-11.5-5.1-11.5-11.5
	c0-6.3,5.1-11.5,11.5-11.5C53.9,17.7,59.1,22.8,59.1,29.2z"/>
<line class="st3" x1="32" y1="3.8" x2="32" y2="60.2"/>
</svg>
