<?xml version="1.0" encoding="utf-8"?>
<svg version="1.1" id="Layer_1" xmlns="http://www.w3.org/2000/svg" xmlns:xlink="http://www.w3.org/1999/xlink" x="0px" y="0px"
	 viewBox="0 0 64 64" style="enable-background:new 0 0 64 64;" xml:space="preserve">
<style type="text/css">
	.st0{fill:#06C167;}
	.st1{fill:none;stroke:#FFFFFF;stroke-width:5.4795;stroke-linecap:round;stroke-linejoin:round;stroke-miterlimit:133.3333;}
</style>
<path class="st0" d="M12,0h40c6.6,0,12,5.4,12,12v40c0,6.6-5.4,12-12,12H12C5.4,64,0,58.6,0,52V12C0,5.4,5.4,0,12,0z"/>
<path id="Clock" class="st1" d="M32,18.3V32h8.2 M56.7,32c0,13.6-11,24.7-24.7,24.7c-13.6,0-24.7-11-24.7-24.7
	c0-13.6,11-24.7,24.7-24.7C45.6,7.3,56.7,18.4,56.7,32z"/>
</svg>
